<?xml version="1.0" encoding="UTF-8" standalone="no"?>
<svg xmlns="http://www.w3.org/2000/svg" viewBox="0 0 24 24"><title>Female User</title><g id="Female_User" data-name="Female User"><g id="_Group_" data-name="&lt;Group&gt;"><path id="_Path_" data-name="&lt;Path&gt;" d="M22.5,22.5h0A10.72,10.72,0,0,0,19,20.18l-2.14-.89a4.1,4.1,0,0,1-2.4-2.79h0s1.64-.36,2,0c-.56-1.16,0-1,0-1s1,.47,1.5,0a2.72,2.72,0,0,1-.5-2c0-1.66,1-.87,1-4,0-2.87-2.27-8-6-8A2.32,2.32,0,0,0,11,2h-.5c-2.81,0-5,4.63-5,7.5,0,3.13,1,2.34,1,4a2.72,2.72,0,0,1-.5,2c.47.47,1.5,0,1.5,0s.56-.16,0,1c.36-.36,2,0,2,0h0a4.1,4.1,0,0,1-2.4,2.79L5,20.18A10.72,10.72,0,0,0,1.5,22.5h0" style="fill:none;stroke:#303c42;stroke-linecap:round;stroke-linejoin:round"/></g></g>
	<metadata>
		<rdf:RDF xmlns:rdf="http://www.w3.org/1999/02/22-rdf-syntax-ns#" xmlns:rdfs="http://www.w3.org/2000/01/rdf-schema#" xmlns:dc="http://purl.org/dc/elements/1.1/">
			<rdf:Description about="https://iconscout.com/legal#licenses" dc:title="female; user; peson; symbol; 4" dc:description="female; user; peson; symbol; 4" dc:publisher="Iconscout" dc:date="2017-02-16" dc:format="image/svg+xml" dc:language="en">
				<dc:creator>
					<rdf:Bag>
						<rdf:li>Alpár - Etele Méder</rdf:li>
					</rdf:Bag>
				</dc:creator>
			</rdf:Description>
		</rdf:RDF>
    </metadata></svg>
