<svg width="22" height="22" viewBox="0 0 22 22" fill="none" xmlns="http://www.w3.org/2000/svg">
<path d="M21.5 21.5C20.8856 20.4282 19.9715 19.5593 18.87 19L17.3 18.48C16.4568 18.197 15.7319 17.6411 15.24 16.9L15 16.5H14L13.5 14.5C14.2985 13.6794 14.8226 12.6312 15 11.5C15.67 11.5 16 8.89 16 8.5C16 8.11 15.83 7.25 15.25 7.25C15.7596 6.61304 16.0255 5.81532 16 5L16.5 4.5C16.5 2.67 14.67 0.5 11.5 0.5C9.25 0.5 8.5 1.5 8.5 1.5C7.9412 1.64455 7.4443 1.96628 7.08373 2.41698C6.72316 2.86769 6.51836 3.4231 6.5 4C6.5 5.08 6.43 6.93 6.75 7.25C6.17 7.25 6 8.11 6 8.5C6 8.89 6.33 11.5 7 11.5C7.17737 12.6312 7.70148 13.6794 8.5 14.5L8 16.5H7L6.76 16.86C6.26646 17.5973 5.54179 18.1496 4.7 18.43L3.13 19C2.02883 19.5598 1.11484 20.4286 0.5 21.5" stroke="#FCFEFF" stroke-linecap="round" stroke-linejoin="round"/>
</svg>
