<?xml version="1.0" encoding="UTF-8" standalone="no"?>
<svg xmlns="http://www.w3.org/2000/svg" viewBox="0 0 24 24"><title>Male User</title><g id="Male_User" data-name="Male User"><g id="_Group_" data-name="&lt;Group&gt;"><path id="_Path_" data-name="&lt;Path&gt;" d="M22.5,22.5A6.34,6.34,0,0,0,19.87,20l-1.57-.52a4,4,0,0,1-2.06-1.58L16,17.5H15l-.5-2a5.53,5.53,0,0,0,1.5-3c.67,0,1-2.61,1-3s-.17-1.25-.75-1.25A3.43,3.43,0,0,0,17,6l.5-.5c0-1.83-1.83-4-5-4-2.25,0-3,1-3,1A2.67,2.67,0,0,0,7.5,5c0,1.08-.07,2.93.25,3.25C7.17,8.25,7,9.11,7,9.5s.33,3,1,3a5.53,5.53,0,0,0,1.5,3l-.5,2H8l-.24.36A4,4,0,0,1,5.7,19.43L4.13,20A6.35,6.35,0,0,0,1.5,22.5" style="fill:none;stroke:#303c42;stroke-linecap:round;stroke-linejoin:round"/></g></g>
	<metadata>
		<rdf:RDF xmlns:rdf="http://www.w3.org/1999/02/22-rdf-syntax-ns#" xmlns:rdfs="http://www.w3.org/2000/01/rdf-schema#" xmlns:dc="http://purl.org/dc/elements/1.1/">
			<rdf:Description about="https://iconscout.com/legal#licenses" dc:title="male; user; person; symbol; 4" dc:description="male; user; person; symbol; 4" dc:publisher="Iconscout" dc:date="2017-02-16" dc:format="image/svg+xml" dc:language="en">
				<dc:creator>
					<rdf:Bag>
						<rdf:li>Alpár - Etele Méder</rdf:li>
					</rdf:Bag>
				</dc:creator>
			</rdf:Description>
		</rdf:RDF>
    </metadata></svg>
