<?xml version="1.0" encoding="UTF-8"?>
<svg xmlns="http://www.w3.org/2000/svg" xmlns:xlink="http://www.w3.org/1999/xlink" version="1.1" id="Layer_1" x="0px" y="0px" viewBox="0 0 24 24" style="enable-background:new 0 0 24 24;" xml:space="preserve">
<g>
	<path style="fill:#303C42;" d="M21,17.495c-0.976,0-3,0.544-4.026,0.838C16.838,16.898,15,16.39,13.1,16.004   c-0.867-0.176-1.513-0.487-2.137-0.788c-0.77-0.371-1.496-0.722-2.463-0.722c-1.107,0-2.116,0.226-2.685,0.383   c-0.151-0.524-0.578-0.946-1.145-1.059l-4.072-0.814c-0.146-0.029-0.299,0.009-0.415,0.104C0.067,13.203,0,13.345,0,13.495v8   c0,0.276,0.224,0.5,0.5,0.5h3.133c0.617,0,1.144-0.393,1.37-0.944c1.12,0.534,6.298,2.944,8.497,2.944   c1.939,0,5.933-1.963,8.574-3.262c0.688-0.338,1.258-0.619,1.627-0.78c0.182-0.08,0.299-0.26,0.299-0.458   C24,18.317,22.767,17.495,21,17.495z"/>
	<path style="fill:#546E7A;" d="M3.633,20.995H1v-6.89l3.475,0.695c0.26,0.052,0.435,0.298,0.396,0.561l-0.743,5.205   C4.093,20.81,3.88,20.995,3.633,20.995z"/>
	<path style="fill:#8D6E63;" d="M21.633,19.835c-2.403,1.182-6.426,3.159-8.133,3.159c-1.818,0-6.595-2.129-8.281-2.95   c-0.002-0.001-0.004-0.001-0.006-0.001l0.588-4.12c0.364-0.114,1.477-0.428,2.699-0.428c0.738,0,1.308,0.275,2.029,0.623   c0.647,0.313,1.382,0.667,2.371,0.868c2.173,0.44,3.1,0.892,3.1,1.51c0,0.122-0.037,0.197-0.132,0.268   C15.55,19,14.309,19.4,9.643,18.015c-0.269-0.077-0.544,0.073-0.622,0.337s0.072,0.543,0.337,0.622   c2.304,0.683,4.064,1.023,5.313,1.023c0.813,0,1.41-0.145,1.796-0.433c0.033-0.025,0.15-0.082,0.182-0.091   c0.884-0.272,3.389-0.978,4.353-0.978c0.815,0,1.674,0.248,1.926,0.713C22.577,19.371,22.137,19.588,21.633,19.835z"/>
	<linearGradient id="SVGID_1_" gradientUnits="userSpaceOnUse" x1="4.6395" y1="17.1775" x2="11.4995" y2="24.0375">
		<stop offset="0" style="stop-color:#000000;stop-opacity:0.1"/>
		<stop offset="1" style="stop-color:#000000;stop-opacity:0"/>
	</linearGradient>
	<path style="fill:url(#SVGID_1_);" d="M5.786,16.031l-0.573,4.012c0.002,0.001,0.004,0.001,0.006,0.001   c1.466,0.713,5.264,2.413,7.427,2.846L5.786,16.031z"/>
	<path style="fill:#303C42;" d="M17.1,0.195c-0.471,0.629-4.6,6.222-4.6,8.799c0,2.757,2.243,5,5,5s5-2.243,5-5   c0-2.577-4.129-8.17-4.6-8.799C17.712-0.058,17.288-0.058,17.1,0.195z"/>
	<path style="fill:#D32F2F;" d="M17.5,12.995c-2.206,0-4-1.794-4-4c0-1.719,2.598-5.697,4-7.653c1.402,1.955,4,5.933,4,7.653   C21.5,11.2,19.706,12.995,17.5,12.995z"/>
	<linearGradient id="SVGID_2_" gradientUnits="userSpaceOnUse" x1="15.2332" y1="5.7152" x2="21.2954" y2="8.5421">
		<stop offset="0" style="stop-color:#FFFFFF;stop-opacity:0"/>
		<stop offset="1" style="stop-color:#FFFFFF;stop-opacity:0.1"/>
	</linearGradient>
	<path style="fill:url(#SVGID_2_);" d="M17.598,12.35c-1.773,0-3.215-1.662-3.215-3.706c0-1.349,1.672-4.87,3.215-7.649   c1.543,2.778,3.215,6.298,3.215,7.649C20.813,10.687,19.371,12.35,17.598,12.35z"/>
	<linearGradient id="SVGID_3_" gradientUnits="userSpaceOnUse" x1="17.0751" y1="2.9945" x2="17.0751" y2="10.0037">
		<stop offset="0" style="stop-color:#FFFFFF;stop-opacity:0"/>
		<stop offset="1" style="stop-color:#FFFFFF;stop-opacity:0.07"/>
	</linearGradient>
	<path style="fill:url(#SVGID_3_);" d="M17.075,10.004c-1.261,0-2.288-1.026-2.288-2.288c0-0.832,1.19-3.006,2.288-4.722   c1.098,1.715,2.288,3.888,2.288,4.722C19.363,8.978,18.337,10.004,17.075,10.004z"/>
	<circle style="opacity:0.2;fill:#FFFFFF;" cx="19.623" cy="10.21" r="0.612"/>
	<path style="fill:#303C42;" d="M15.5,8.995c0-0.276-0.224-0.5-0.5-0.5s-0.5,0.224-0.5,0.5c0,1.654,1.346,3,3,3   c0.276,0,0.5-0.224,0.5-0.5s-0.224-0.5-0.5-0.5C16.397,10.995,15.5,10.098,15.5,8.995z"/>
	<linearGradient id="SVGID_4_" gradientUnits="userSpaceOnUse" x1="2.5213" y1="7.9768" x2="24.6178" y2="18.2805">
		<stop offset="0" style="stop-color:#FFFFFF;stop-opacity:0.2"/>
		<stop offset="1" style="stop-color:#FFFFFF;stop-opacity:0"/>
	</linearGradient>
	<path style="fill:url(#SVGID_4_);" d="M21,17.495c-0.976,0-3,0.544-4.026,0.838C16.838,16.898,15,16.39,13.1,16.004   c-0.867-0.176-1.513-0.487-2.137-0.788c-0.77-0.371-1.496-0.722-2.463-0.722c-1.107,0-2.116,0.226-2.685,0.383   c-0.151-0.524-0.578-0.946-1.145-1.059l-4.072-0.814c-0.146-0.029-0.299,0.009-0.415,0.104C0.067,13.203,0,13.345,0,13.495v8   c0,0.276,0.224,0.5,0.5,0.5h3.133c0.617,0,1.144-0.393,1.37-0.944c1.12,0.534,6.298,2.944,8.497,2.944   c1.939,0,5.933-1.963,8.574-3.262c0.688-0.338,1.258-0.619,1.627-0.78c0.182-0.08,0.299-0.26,0.299-0.458   C24,18.317,22.767,17.495,21,17.495z M17.5,13.995c2.757,0,5-2.243,5-5c0-2.577-4.129-8.17-4.6-8.799   c-0.188-0.253-0.612-0.253-0.801,0c-0.471,0.629-4.6,6.222-4.6,8.799C12.5,11.751,14.743,13.995,17.5,13.995z"/>
</g>
<g>
</g>
<g>
</g>
<g>
</g>
<g>
</g>
<g>
</g>
<g>
</g>
<g>
</g>
<g>
</g>
<g>
</g>
<g>
</g>
<g>
</g>
<g>
</g>
<g>
</g>
<g>
</g>
<g>
</g>

	<metadata>
		<rdf:RDF xmlns:rdf="http://www.w3.org/1999/02/22-rdf-syntax-ns#" xmlns:rdfs="http://www.w3.org/2000/01/rdf-schema#" xmlns:dc="http://purl.org/dc/elements/1.1/">
			<rdf:Description about="https://iconscout.com/legal#licenses" dc:title="Blood-Donation 2" dc:description="Blood-Donation 2" dc:publisher="Iconscout" dc:date="2017-03-22" dc:format="image/svg+xml" dc:language="en">
				<dc:creator>
					<rdf:Bag>
						<rdf:li>Alpár - Etele Méder</rdf:li>
					</rdf:Bag>
				</dc:creator>
			</rdf:Description>
		</rdf:RDF>
    </metadata></svg>
